<?xml version="1.0" standalone="no"?>
<!DOCTYPE svg PUBLIC "-//W3C//DTD SVG 20010904//EN"
 "http://www.w3.org/TR/2001/REC-SVG-20010904/DTD/svg10.dtd">
<svg version="1.0" xmlns="http://www.w3.org/2000/svg"
 width="878.000000pt" height="878.000000pt" viewBox="0 0 878.000000 878.000000"
 preserveAspectRatio="xMidYMid meet">
<metadata>
Created by potrace 1.15, written by Peter Selinger 2001-2017
</metadata>
<g transform="translate(0.000000,878.000000) scale(0.100000,-0.100000)"
fill="#000000" stroke="none">
<path d="M6077 8220 c-18 -10 -52 -24 -75 -30 -30 -10 -49 -25 -74 -59 -36
-51 -50 -68 -92 -117 -27 -32 -31 -34 -95 -34 -60 0 -116 11 -196 39 -60 20
-202 43 -290 47 -261 11 -270 13 -295 85 -9 25 -24 42 -46 53 -18 8 -35 12
-38 7 -5 -7 -36 -10 -136 -14 -27 -1 -38 -7 -48 -27 -11 -23 -18 -26 -70 -25
-76 2 -102 -10 -102 -47 0 -15 5 -28 11 -28 8 0 6 -8 -3 -22 -21 -31 -53 -30
-72 4 -18 30 -31 34 -56 18 -13 -9 -13 -11 0 -20 13 -9 11 -13 -10 -30 -14
-11 -30 -20 -37 -20 -6 0 -18 -6 -25 -12 -25 -24 -57 -38 -100 -44 -50 -8
-104 -29 -113 -44 -4 -6 -21 -17 -38 -25 -44 -21 -158 -91 -314 -192 -36 -24
-70 -43 -75 -43 -11 0 -135 -109 -209 -183 -52 -52 -151 -238 -164 -308 -6
-34 -21 -62 -60 -115 -14 -19 -14 -23 6 -48 43 -54 31 -129 -24 -161 -18 -10
-47 -31 -65 -47 -40 -34 -47 -35 -57 -5 l-8 22 -4 -24 c-3 -13 -11 -30 -19
-38 -16 -16 -84 -46 -84 -37 0 4 -7 1 -15 -6 -10 -9 -15 -9 -15 -1 0 19 -15
12 -25 -11 -6 -13 -19 -24 -30 -26 -11 -2 -31 -16 -45 -32 -14 -15 -48 -40
-76 -54 -28 -14 -57 -32 -63 -40 -7 -8 -40 -29 -74 -47 -34 -17 -74 -40 -89
-50 -14 -11 -30 -19 -34 -19 -4 0 -15 -6 -23 -14 -9 -7 -43 -28 -75 -45 -33
-18 -94 -63 -137 -100 -42 -38 -102 -85 -133 -106 -31 -20 -62 -45 -69 -54 -6
-9 -43 -43 -82 -76 -38 -33 -76 -66 -83 -72 -7 -7 -17 -13 -20 -13 -11 0 -522
-504 -522 -514 0 -9 -63 -90 -85 -111 -34 -31 -148 -169 -182 -220 -22 -33
-63 -106 -91 -162 -28 -56 -55 -110 -60 -120 -5 -10 -14 -29 -20 -43 -5 -14
-28 -66 -51 -117 -22 -50 -41 -96 -41 -102 0 -6 -13 -43 -29 -83 -16 -40 -32
-104 -35 -143 -4 -38 -14 -98 -21 -132 -29 -124 -35 -189 -25 -237 25 -116 30
-133 46 -166 10 -19 39 -57 66 -83 26 -27 60 -75 75 -107 26 -54 31 -59 61
-59 19 -1 66 -14 105 -30 40 -15 111 -38 159 -50 48 -11 99 -26 115 -32 15 -5
46 -13 68 -15 22 -3 54 -9 70 -13 17 -5 71 -9 120 -10 50 -1 108 -4 130 -6
101 -10 152 -16 183 -23 81 -18 454 14 627 52 96 22 207 36 355 46 127 9 193
16 400 46 63 9 129 18 145 20 17 2 41 8 55 13 14 5 34 12 45 16 11 4 38 9 60
11 22 2 65 11 95 19 30 8 109 28 175 45 66 17 141 36 167 43 25 7 50 15 54 20
4 4 16 7 27 7 10 0 50 9 88 21 38 12 76 18 84 15 8 -3 33 1 56 9 23 8 57 15
76 15 42 0 96 22 136 56 18 15 59 40 92 55 49 24 71 28 125 27 59 -2 72 2 140
39 69 37 110 53 150 58 8 1 22 2 31 3 9 1 39 17 65 35 27 18 63 39 79 47 17 8
37 20 46 27 22 19 52 6 39 -16 -5 -10 -16 -71 -25 -137 -9 -65 -19 -122 -22
-127 -2 -4 -15 -67 -28 -140 -33 -178 -51 -267 -75 -357 -11 -41 -25 -106 -30
-145 -6 -38 -15 -90 -20 -115 -6 -25 -15 -70 -20 -100 -5 -30 -21 -104 -35
-165 -14 -60 -28 -128 -31 -150 -3 -22 -12 -65 -20 -95 -8 -30 -14 -64 -14
-77 0 -12 -9 -44 -19 -71 -11 -27 -22 -80 -26 -118 -3 -38 -15 -114 -25 -169
-10 -55 -28 -152 -40 -215 -25 -139 -75 -363 -100 -445 -10 -33 -41 -106 -69
-161 -28 -56 -51 -105 -51 -108 0 -3 -20 -42 -45 -87 -25 -45 -45 -87 -45 -94
0 -17 -65 -100 -130 -165 -46 -47 -69 -61 -145 -89 -49 -18 -115 -43 -145 -56
-30 -13 -100 -38 -155 -55 l-100 -32 -230 1 c-312 2 -381 15 -497 92 -37 24
-86 55 -109 69 -66 39 -179 157 -243 253 -85 128 -109 217 -107 402 2 119 8
158 54 315 32 109 110 220 259 366 108 106 134 126 213 164 61 30 103 58 132
89 37 40 47 45 90 47 26 1 52 3 56 3 4 1 15 17 23 38 15 35 49 72 69 73 10 0
181 122 225 161 45 40 164 112 197 119 61 14 61 0 -8 -180 -17 -47 -46 -125
-64 -175 -17 -49 -44 -119 -60 -155 -54 -128 -63 -169 -60 -279 4 -114 16
-141 65 -141 23 0 40 16 98 88 39 49 81 109 94 135 13 25 41 72 63 104 50 71
80 142 90 207 4 27 19 75 35 107 15 31 30 70 34 86 4 15 13 42 20 58 8 17 28
59 44 95 17 36 33 85 37 108 8 48 56 161 87 204 25 37 40 132 28 179 -15 53
-41 72 -113 80 -34 3 -72 9 -85 13 -18 6 -28 1 -52 -26 -119 -134 -284 -290
-364 -344 -41 -28 -309 -164 -322 -164 -20 0 -131 -59 -195 -103 -35 -25 -97
-59 -137 -76 -41 -17 -86 -39 -100 -50 -15 -10 -56 -32 -92 -48 -86 -39 -259
-162 -336 -239 -64 -64 -207 -273 -270 -394 -34 -65 -124 -269 -124 -281 0 -8
-9 -40 -20 -71 -22 -67 -27 -146 -12 -203 5 -22 13 -80 16 -129 9 -121 30
-198 77 -278 21 -36 39 -69 39 -72 0 -2 18 -31 39 -63 49 -73 120 -140 194
-184 32 -19 84 -55 115 -80 74 -60 105 -75 172 -84 30 -4 93 -20 140 -35 170
-57 194 -61 353 -62 174 -2 216 4 557 86 58 13 123 27 145 31 22 3 58 12 80
20 124 42 156 49 247 51 105 2 154 15 163 44 13 41 91 148 138 190 28 25 60
56 71 69 12 13 44 49 72 80 113 124 109 118 231 340 23 42 42 84 43 94 0 10
14 44 30 77 17 33 30 65 30 73 0 7 23 69 50 138 28 68 55 140 59 159 5 19 25
89 45 155 20 66 41 138 47 160 6 22 15 54 21 70 12 39 40 284 34 294 -3 4 1
48 9 97 8 49 16 112 19 139 14 152 25 236 31 245 4 6 18 78 30 158 13 81 31
185 40 232 24 130 42 243 60 372 8 64 29 163 45 220 16 56 30 117 30 133 0 32
72 249 90 270 6 7 18 50 26 95 9 46 32 117 51 159 20 42 44 94 53 116 10 22
43 92 74 155 30 63 59 126 64 140 5 14 30 52 55 85 24 33 48 71 52 85 4 14 19
41 32 60 31 47 63 151 63 209 0 58 -18 85 -75 110 -34 15 -53 34 -82 78 -20
32 -48 67 -62 78 -58 46 -215 146 -264 169 -241 110 -252 114 -377 136 -69 11
-145 25 -170 30 -143 28 -435 31 -605 7 -411 -59 -564 -89 -738 -143 -62 -19
-139 -43 -172 -54 -146 -45 -315 -110 -365 -140 -30 -17 -75 -40 -100 -50 -61
-24 -388 -224 -455 -277 -5 -5 -41 -31 -80 -58 -38 -27 -91 -67 -117 -89 -26
-23 -61 -48 -77 -57 -35 -18 -105 -78 -274 -229 -83 -74 -166 -161 -213 -224
-40 -53 -105 -130 -157 -187 -9 -10 -15 -19 -13 -19 7 0 -15 -38 -67 -117 -26
-40 -47 -77 -47 -82 0 -6 -4 -11 -8 -11 -5 0 -17 -17 -28 -37 -10 -21 -28 -51
-40 -68 -12 -16 -24 -38 -27 -47 -11 -30 -30 -21 -22 10 4 15 7 36 7 47 -1 10
8 33 19 51 17 28 17 33 4 44 -9 7 -19 10 -22 6 -4 -4 -2 -11 6 -15 9 -6 7 -10
-8 -14 -12 -3 -19 -2 -16 3 3 4 -2 13 -10 20 -12 10 -21 10 -38 2 -12 -6 -29
-11 -37 -11 -8 0 -36 -3 -62 -7 -47 -6 -48 -5 -48 20 0 14 4 26 9 26 5 0 9 16
9 35 0 54 13 134 23 141 5 3 9 -2 9 -11 0 -12 3 -13 13 -4 7 7 13 19 14 28 1
9 5 28 8 42 5 18 1 31 -10 43 -17 16 -16 18 4 40 15 15 18 25 10 33 -7 7 -6
12 5 16 9 4 16 1 16 -6 0 -8 4 -6 10 3 14 22 12 30 -8 30 -15 0 -17 6 -14 35
2 19 8 35 14 35 5 0 6 10 3 21 -5 14 -2 25 6 30 8 5 12 22 11 42 -4 41 43 164
69 180 11 7 19 18 19 25 0 7 11 28 24 45 13 18 26 48 30 68 8 46 44 80 74 72
12 -3 22 -10 22 -15 0 -5 5 -6 11 -2 13 8 28 -13 29 -41 1 -31 45 -79 65 -72
9 4 14 11 11 16 -4 5 -1 11 4 13 6 2 12 23 13 48 2 43 1 44 -38 55 -22 7 -40
17 -39 23 2 29 5 33 14 27 6 -3 10 -2 10 4 0 5 -4 12 -9 15 -14 9 -1 48 25 74
13 13 27 21 33 18 5 -4 14 2 20 11 6 10 11 12 11 6 0 -7 11 -13 25 -13 14 0
25 -4 25 -9 0 -13 49 0 92 24 38 22 39 34 3 42 -47 11 -80 30 -80 48 0 11 4
23 8 26 5 3 11 25 14 48 6 45 39 78 68 68 8 -4 17 -2 20 3 4 6 17 10 31 10 15
0 24 6 24 15 0 13 3 12 19 -1 10 -9 18 -27 16 -40 -1 -17 4 -24 23 -29 30 -7
40 1 48 43 6 28 4 34 -15 39 -13 3 -21 13 -21 26 0 16 3 18 12 9 8 -8 18 -5
40 13 16 14 35 25 43 25 7 0 16 7 19 16 4 11 10 13 19 7 32 -25 86 -3 87 35 0
7 9 33 20 57 19 42 22 44 43 32 12 -6 25 -16 29 -22 4 -5 14 -2 26 8 10 9 29
17 43 17 19 0 21 2 9 10 -11 8 -8 9 12 4 47 -11 112 54 77 77 -10 6 -11 9 -1
9 6 0 12 7 12 15 0 8 -6 12 -15 9 -34 -13 -36 9 -4 37 19 16 36 29 39 30 30 4
43 9 56 20 9 7 36 13 61 14 37 0 49 5 65 28 11 15 26 27 34 27 24 0 65 32 60
46 -9 24 25 39 89 38 60 -1 62 0 80 32 10 19 22 34 28 34 5 0 6 8 3 17 -4 10
-4 14 0 10 4 -4 12 -2 19 3 6 5 29 12 51 15 21 3 46 9 54 12 8 3 31 7 50 8 19
1 53 10 75 20 35 15 59 16 190 10 83 -4 242 -9 355 -10 113 -1 270 -3 350 -4
159 -1 298 15 407 49 67 21 204 52 315 71 62 10 139 39 258 97 55 27 96 57
153 113 42 43 77 84 77 92 0 7 -35 39 -77 70 -43 31 -93 72 -112 92 -55 59
-73 66 -244 97 -150 27 -179 29 -402 28 -250 0 -236 1 -506 -55 -36 -7 -86
-19 -110 -25 -24 -7 -68 -13 -97 -15 -29 -1 -57 -6 -63 -12 -16 -16 -49 -3
-49 19 0 14 -5 18 -16 14 -9 -3 -24 -6 -35 -6 -10 0 -18 -6 -17 -12 2 -7 -7
-14 -19 -16 -15 -2 -26 -15 -35 -38 -6 -18 -15 -29 -18 -23 -4 6 -12 4 -20 -6
-11 -14 -14 -13 -26 2 -16 21 -18 59 -4 68 6 4 8 10 5 15 -3 4 2 13 9 20 8 6
18 24 21 40 3 16 12 34 20 40 15 13 92 10 87 -3 -4 -12 31 -37 41 -30 5 3 3 9
-4 14 -10 6 -10 9 -2 9 6 0 15 -4 18 -10 11 -18 25 -10 25 14 0 13 7 29 15 36
9 7 13 15 10 18 -3 3 5 12 16 20 l22 15 -23 12 -23 13 21 11 c24 13 35 14 29
4 -3 -5 6 -9 20 -9 16 -1 23 2 19 11 -2 7 2 16 10 19 9 3 12 11 9 16 -4 6 -4
23 0 38 5 20 8 23 16 11 7 -11 9 -11 9 4 0 9 9 25 20 34 11 10 20 24 20 31 0
23 63 72 93 72 15 0 27 5 27 10 0 6 11 10 25 10 14 0 25 4 25 9 0 17 99 50
186 61 49 7 105 16 126 22 25 8 45 7 67 0 24 -9 41 -8 72 3 23 8 56 15 74 15
18 0 52 7 76 16 34 12 91 16 253 17 l210 1 8 -30 c5 -18 2 -51 -8 -89 -20 -80
-20 -233 0 -253 23 -23 65 -7 81 31 7 18 44 70 81 117 37 47 78 110 92 140 27
60 65 110 154 207 32 34 60 73 64 87 5 23 78 86 111 97 6 2 34 26 62 52 41 39
51 55 51 81 0 62 -73 98 -133 66z m-907 -1227 c108 -14 190 -44 190 -69 0 -53
-214 -146 -422 -183 -64 -12 -129 -26 -145 -32 -59 -22 -130 -28 -405 -34
l-284 -5 -44 46 c-33 34 -41 48 -31 52 8 2 29 19 47 36 42 40 68 62 69 58 0
-6 97 8 208 29 43 8 62 8 70 0 22 -22 65 -13 87 19 21 29 78 62 134 76 97 24
373 28 526 7z m56 -1111 c40 -13 76 -19 102 -15 26 3 51 0 71 -10 17 -8 50
-18 73 -22 24 -4 67 -15 96 -26 29 -10 62 -19 74 -19 11 0 61 -14 111 -31 63
-22 97 -39 111 -58 12 -14 36 -40 56 -58 l34 -32 -13 -53 c-13 -49 -31 -99
-52 -140 -5 -10 -9 -26 -9 -36 0 -10 -3 -22 -7 -26 -5 -4 -8 -11 -9 -14 -1 -9
-16 -46 -54 -133 -17 -37 -30 -71 -30 -76 0 -5 -11 -24 -24 -43 -13 -19 -33
-60 -46 -90 -12 -30 -26 -63 -31 -72 -5 -10 -9 -26 -9 -36 0 -10 -4 -22 -9
-27 -4 -6 -14 -32 -20 -60 -8 -33 -25 -63 -51 -91 -22 -24 -46 -58 -54 -77
-16 -40 -83 -117 -101 -117 -7 0 -25 -12 -40 -26 -40 -37 -94 -69 -166 -99
-35 -15 -109 -49 -164 -75 -55 -26 -143 -64 -195 -84 -52 -20 -114 -45 -138
-56 -23 -11 -49 -20 -56 -20 -8 0 -36 -9 -63 -21 -26 -12 -86 -32 -133 -44
-97 -27 -173 -53 -243 -85 -84 -38 -238 -78 -323 -85 -27 -2 -143 -30 -259
-63 -115 -33 -253 -69 -305 -81 -347 -75 -455 -90 -465 -63 -10 27 82 106 172
148 21 10 57 30 80 46 23 15 48 28 55 28 27 0 168 126 168 151 0 9 -12 27 -27
39 -38 30 -109 22 -176 -20 -26 -16 -52 -30 -56 -30 -5 0 -80 -32 -167 -71
-138 -61 -231 -107 -483 -240 -85 -45 -143 -56 -264 -53 -59 1 -122 8 -141 14
-76 25 -103 95 -82 215 14 80 37 133 72 169 21 21 30 23 57 15 39 -11 49 -2
41 40 -4 18 -10 29 -13 24 -13 -17 -31 -12 -32 9 -2 40 1 51 52 155 27 56 49
104 49 107 0 18 98 152 148 203 13 13 30 39 38 58 15 38 96 122 246 258 164
149 288 236 698 484 30 18 73 38 95 44 22 6 81 30 130 54 88 42 139 60 240 86
28 7 96 32 152 56 132 56 310 112 393 123 36 5 103 16 150 25 47 8 117 16 155
16 39 0 93 5 120 11 28 6 73 12 100 15 28 3 51 6 52 7 1 1 60 1 130 0 97 -2
143 -7 189 -22z m-3558 -1721 c10 -29 39 -38 54 -17 13 19 40 -16 33 -43 -13
-49 -17 -66 -29 -128 -7 -33 -20 -73 -29 -87 -10 -14 -13 -26 -7 -26 5 0 10
-9 10 -20 0 -26 -16 -26 -23 1 -3 12 -10 18 -16 14 -6 -3 -11 -1 -11 6 0 7 -9
9 -22 6 -30 -8 -68 2 -68 18 0 7 -6 25 -14 40 -13 25 -13 30 7 56 24 33 32 37
23 12 -5 -16 -5 -16 8 0 14 18 15 18 26 -2 12 -23 18 -25 38 -13 9 6 10 16 3
34 -10 28 -36 42 -54 31 -40 -25 -44 28 -8 92 37 64 63 72 79 26z"/>
<path d="M1830 4979 c0 -22 15 -39 34 -39 17 0 18 2 6 10 -12 8 -11 10 7 10
22 0 53 -33 53 -57 0 -7 -7 -13 -15 -13 -8 0 -15 -4 -15 -10 0 -5 3 -9 8 -9
20 3 27 -3 28 -23 1 -13 5 -32 8 -43 8 -22 -25 -71 -38 -58 -4 4 -4 0 0 -10 8
-23 -13 -22 -25 1 -6 11 -12 32 -15 48 -6 30 -29 54 -53 54 -7 0 -13 4 -13 8
0 5 -13 8 -30 7 -16 -1 -27 2 -24 7 3 4 0 8 -6 8 -6 0 -13 -6 -16 -14 -3 -8
-12 -12 -20 -9 -18 7 -18 -2 2 -32 10 -16 26 -25 43 -25 34 0 48 -10 60 -43 6
-15 14 -27 18 -26 5 1 20 1 34 0 29 -1 53 -41 44 -72 -4 -11 -2 -19 4 -19 6 0
8 -7 4 -16 -5 -13 -2 -15 16 -9 12 4 28 2 36 -5 11 -9 14 -6 13 20 -1 18 -7
34 -15 37 -21 8 -16 51 8 63 12 7 18 18 15 26 -3 9 1 14 11 14 9 0 14 3 10 6
-3 4 1 20 9 36 14 27 14 31 -2 49 -9 10 -23 19 -29 19 -16 0 -45 43 -45 66 0
10 -3 14 -7 11 -3 -4 -12 2 -19 12 -13 18 -84 35 -84 20z"/>
<path d="M1746 4591 c-3 -5 0 -12 6 -15 10 -5 10 -7 1 -12 -7 -3 -13 -12 -13
-20 0 -29 -32 -64 -59 -64 -41 0 -54 -12 -37 -36 13 -17 17 -17 37 -6 15 10
24 11 28 3 4 -6 23 -12 43 -13 20 -2 34 -6 31 -10 -2 -5 0 -8 6 -8 14 0 24 36
16 59 -4 13 1 27 14 40 28 28 38 26 46 -9 7 -30 25 -42 25 -16 0 16 -29 73
-47 93 -14 16 -49 17 -59 1 -5 -8 -11 -6 -20 6 -7 10 -15 13 -18 7z"/>
<path d="M6515 3716 c-64 -31 -217 -175 -266 -249 -46 -70 -57 -128 -35 -180
18 -43 46 -57 117 -57 66 0 109 20 139 64 14 20 60 64 103 98 43 34 99 84 123
112 37 43 44 57 44 94 0 120 -105 176 -225 118z"/>
</g>
</svg>
